<?xml version="1.0" standalone="no"?><!DOCTYPE svg PUBLIC "-//W3C//DTD SVG 1.1//EN" "http://www.w3.org/Graphics/SVG/1.1/DTD/svg11.dtd"><svg class="icon" width="44px" height="44.00px" viewBox="0 0 1024 1024" version="1.1" xmlns="http://www.w3.org/2000/svg"><path fill="#222222" d="M676.821333 85.333333C813.184 85.333333 894.72 167.253333 896 304.298667v412.117333C896 855.381333 814.250667 938.666667 676.821333 938.666667H347.221333c-17.578667 0-34.261333-1.365333-49.962666-4.053334l-9.301334-1.749333c-101.162667-21.034667-160-98.517333-160-216.448V307.584c0-14.250667 0.853333-27.904 2.56-40.96C145.493333 152.064 224.213333 85.333333 347.264 85.333333h329.6z m-0.426666 62.165334H347.264c-104.789333 0-157.909333 53.888-157.909333 160.085333v408.832c0 106.197333 53.12 160.085333 157.866666 160.085333h329.258667c104.746667 0 157.525333-53.888 157.525333-160.085333V307.584c0-106.197333-52.778667-160.085333-157.525333-160.085333z m-11.093334 514.261333c16.810667 0 30.421333 13.824 30.421334 30.890667 0 17.066667-13.653333 30.890667-30.421334 30.890666H357.632a30.72 30.72 0 0 1-30.464-30.890666c0-17.066667 13.653333-30.890667 30.464-30.890667h307.626667z m0-180.864a30.805333 30.805333 0 0 1 29.44 14.464 31.786667 31.786667 0 0 1 0 33.28 30.805333 30.805333 0 0 1-29.44 14.464H357.632A31.146667 31.146667 0 0 1 330.197333 512a31.146667 31.146667 0 0 1 27.434667-31.104h307.626667z m-190.293333-180.437333a31.146667 31.146667 0 0 1 27.477333 31.104 31.146667 31.146667 0 0 1-27.434666 31.061333H357.973333a31.146667 31.146667 0 0 1-27.477333-31.061333 31.146667 31.146667 0 0 1 27.477333-31.104h117.034667z"  /></svg>