<?xml version="1.0" standalone="no"?><!DOCTYPE svg PUBLIC "-//W3C//DTD SVG 1.1//EN" "http://www.w3.org/Graphics/SVG/1.1/DTD/svg11.dtd"><svg t="1598002305735" class="icon" viewBox="0 0 1024 1024" version="1.1" xmlns="http://www.w3.org/2000/svg" p-id="7908" width="36" height="36" xmlns:xlink="http://www.w3.org/1999/xlink"><defs><style type="text/css"></style></defs><path d="M491.093333 110.08c16.64-5.546667 34.133333-4.266667 49.493334 3.413333 12.373333 5.973333 22.613333 16.213333 29.013333 29.013334l96.426667 193.706666c0.426667 0.426667 0.853333 0.853333 1.28 0.853334l215.893333 31.146666c16.64 2.133333 32 11.093333 42.666667 24.746667a63.744 63.744 0 0 1-6.826667 84.053333l-156.586667 151.466667c-0.426667 0.426667-0.426667 0.426667 0 0.853333l37.546667 213.76c5.546667 34.56-18.346667 66.986667-53.333333 72.96-13.653333 2.090667-27.733333 0-40.533334-6.826666l-192.853333-100.693334c-0.426667 0-0.853333 0-1.706667 0.426667l-194.133333 101.546667c-31.146667 15.786667-69.546667 3.84-86.186667-27.306667-6.826667-12.373333-8.96-26.453333-6.826666-40.533333l37.973333-212.906667c0-0.853333-0.426667-1.28-0.426667-1.28l-157.866666-151.893333c-25.173333-24.746667-25.173333-65.28 0.853333-91.306667a69.973333 69.973333 0 0 1 35.413333-17.066667l215.466667-31.146666c0.853333 0 1.706667-0.426667 1.706667-1.28l96.426666-193.28c7.68-15.36 20.906667-26.88 37.12-32.426667zM512 168.96h-0.853333c-0.426667 0.426667-0.853333 0.426667-1.28 1.28L413.44 363.477333c-8.96 18.816-26.88 31.616-48.213333 35.413334l-214.613334 30.762666-2.56 0.853334c-0.426667 0.384-0.426667 1.28-0.426666 1.706666l157.866666 151.466667c14.933333 14.464 21.76 35.797333 18.346667 56.746667l-37.546667 212.48v0.853333c0.426667 1.28 1.706667 1.706667 2.56 1.28l193.28-101.12c19.2-10.24 41.813333-10.24 60.586667-0.426667l192 100.266667c0.853333 0.384 1.706667 0.853333 2.133333 0.384h0.853334l0.853333-0.810667-37.546667-212.522666c-4.266667-21.333333 2.986667-42.666667 18.346667-57.130667l156.586667-151.893333 0.426666-0.896-0.426666-0.384c-0.426667 0-0.853333-0.426667-1.706667-0.426667l-215.893333-31.189333c-20.906667-3.413333-39.253333-16.597333-48.213334-35.413334L513.706667 170.666667c0-0.853333-0.426667-1.28-1.28-1.28L512 168.96z" fill="#333333" p-id="7909"></path></svg>