<?xml version="1.0" standalone="no"?><!DOCTYPE svg PUBLIC "-//W3C//DTD SVG 1.1//EN" "http://www.w3.org/Graphics/SVG/1.1/DTD/svg11.dtd"><svg t="1597131990527" class="icon" viewBox="0 0 1024 1024" version="1.1" xmlns="http://www.w3.org/2000/svg" p-id="18283" width="44" height="44" xmlns:xlink="http://www.w3.org/1999/xlink"><defs><style type="text/css"></style></defs><path d="M919.3 739.4l-88.9-97.9V491c0-45.9-8.2-90.6-24.3-132.8-15.7-41.1-38.2-78.1-66.9-110-29.1-32.4-63.1-57.9-101-75.8-4-1.9-8-3.6-12-5.3v-1.6c0-62.8-51.1-113.9-113.9-113.9-62.8 0-113.9 51.1-113.9 113.9v1.6c-4 1.7-8 3.4-12 5.3-37.9 17.9-71.9 43.4-101 75.8-28.7 31.9-51.2 68.9-66.9 110-16.1 42.2-24.3 86.9-24.3 132.8v150.5l-89.4 97.8c-16 17.6-20.2 42.9-10.6 64.7 9.6 21.8 31.1 35.8 54.9 35.8h209c12.3 74 76.7 130.7 154.2 130.7 77.5 0 141.9-56.6 154.2-130.7h208.3c23.7 0 45.3-14 54.9-35.7 9.6-21.8 5.5-47.1-10.4-64.7z m-407-627.8c23.8 0 44 15.5 51.1 36.9-16.8-3-33.9-4.5-51.1-4.5-17.3 0-34.3 1.5-51.1 4.5 7.1-21.4 27.4-36.9 51.1-36.9z m0 798.8c-44.2 0-81.6-30-92.9-70.7h185.7c-11.2 40.7-48.5 70.7-92.8 70.7zM149.1 779.7l105.1-115V491c0-157.8 116.1-287 258.1-287 141.9 0 258.1 129.1 258.1 287v173.8l104.5 115H149.1z" fill="#3388ff" p-id="18284"></path><path d="M655.4 307.3c-13.7-9.3-32.4-5.6-41.6 8.1-9.3 13.7-5.6 32.4 8.1 41.6 0.1 0.1 14.3 11.2 27.9 40.2 27.4 58.2 28.5 134.8 24.6 188.8-1.2 16.5 11.2 30.9 27.8 32.1 0.7 0.1 1.5 0.1 2.2 0.1 15.6 0 28.8-12.1 29.9-27.8 6.4-88.9-3.7-162.5-30.1-218.7-20.8-44-44.3-61.3-48.8-64.4z" fill="#3388ff" p-id="18285"></path></svg>