<?xml version="1.0" standalone="no"?><!DOCTYPE svg PUBLIC "-//W3C//DTD SVG 1.1//EN" "http://www.w3.org/Graphics/SVG/1.1/DTD/svg11.dtd"><svg t="1596603520990" class="icon" viewBox="0 0 1061 1024" version="1.1" xmlns="http://www.w3.org/2000/svg" p-id="2128" width="124.3359375" height="120" xmlns:xlink="http://www.w3.org/1999/xlink"><defs><style type="text/css"></style></defs><path d="M534.34920633 1024c-282.313143 0-512-229.686857-512-512s229.686857-512 512-512 512 229.686857 512 512-229.686857 512-512 512z m0-987.428571C272.20520633 36.571429 58.92063533 249.856 58.92063533 512c0 262.162286 213.284571 475.428571 475.428571 475.428571 262.162286 0 475.428571-213.266286 475.428571-475.428571 0-262.144-213.266286-475.428571-475.428571-475.428571z" fill="#333333" p-id="2129"></path><path d="M343.90349233 721.664c-14.189714 0-28.050286-5.668571-38.747429-16.493714a54.016 54.016 0 0 1-9.673143-63.744l190.134857-367.597715c9.6-18.56 27.812571-29.659429 48.731429-29.659428s39.131429 11.081143 48.731429 29.659428l190.134857 367.616a54.125714 54.125714 0 0 1-9.691429 63.744 54.107429 54.107429 0 0 1-63.616 10.496l-157.385143-78.884571a17.334857 17.334857 0 0 0-16.384 0l-157.366857 78.866286c-8.009143 4.022857-16.493714 5.997714-24.868571 5.997714zM534.34920633 280.740571a17.517714 17.517714 0 0 0-16.237714 9.892572L327.97663533 658.212571a17.810286 17.810286 0 0 0 3.236571 21.266286 17.792 17.792 0 0 0 21.211429 3.474286l157.348571-78.866286a53.485714 53.485714 0 0 1 49.152 0l157.366857 78.866286a17.865143 17.865143 0 0 0 21.193143-3.510857 17.792 17.792 0 0 0 3.236571-21.248L550.58692033 290.633143a17.517714 17.517714 0 0 0-16.237714-9.892572z" fill="#333333" p-id="2130"></path></svg>