<?xml version="1.0" standalone="no"?><!DOCTYPE svg PUBLIC "-//W3C//DTD SVG 1.1//EN" "http://www.w3.org/Graphics/SVG/1.1/DTD/svg11.dtd"><svg t="1596603496261" class="icon" viewBox="0 0 1034 1024" version="1.1" xmlns="http://www.w3.org/2000/svg" p-id="1427" width="121.171875" height="120" xmlns:xlink="http://www.w3.org/1999/xlink"><defs><style type="text/css"></style></defs><path d="M939.677133 1021.44h-850.944c-25.6 0-53.248-13.312-69.12-32.768-15.872-19.456-22.528-45.568-18.432-73.728l0.512-1.536c23.552-116.736 81.408-219.648 166.912-298.496 86.528-79.36 193.024-126.464 307.712-134.656h2.56c93.184 0 173.056 14.848 244.736 45.056 18.944 7.68 28.672 12.8 37.888 17.408l9.216 4.608 1.536 1.024c136.704 78.336 228.864 207.872 259.584 364.032 7.168 27.648-1.024 57.344-22.528 78.848l-2.048 2.048c-23.04 18.432-45.568 28.16-67.584 28.16z m-877.568-97.28c-0.512 5.632-1.024 17.408 5.12 25.088l0.512 0.512c3.584 4.608 13.824 9.728 20.992 9.728h850.944c6.656 0 16.384-4.608 26.624-13.312 5.12-5.632 7.168-12.8 5.632-18.944l-0.512-2.56c-26.624-138.752-108.032-253.44-229.376-323.584-3.584-1.536-6.656-3.584-9.728-5.12-8.704-4.608-16.384-8.704-32.256-14.848h-0.512c-63.488-27.136-135.68-40.448-219.648-40.448-100.352 7.68-193.536 48.64-269.824 118.784-75.264 70.144-126.464 161.792-147.968 264.704z" fill="#333333" p-id="1428"></path><path d="M514.205133 536.576c-143.872 0-261.12-117.248-261.12-261.12s117.248-261.12 261.12-261.12c70.144 0 136.192 27.136 185.344 76.288 49.152 49.152 76.288 114.688 76.288 185.344 0 69.12-27.136 134.656-76.8 184.32-50.176 48.64-115.712 76.288-184.832 76.288z m0-461.312c-110.08 0-199.68 89.6-199.68 199.68s89.6 199.68 199.68 199.68c108.544 0 199.68-91.648 199.68-199.68 0.512-111.616-87.552-199.68-199.68-199.68z" fill="#333333" p-id="1429"></path></svg>