<?xml version="1.0" standalone="no"?><!DOCTYPE svg PUBLIC "-//W3C//DTD SVG 1.1//EN" "http://www.w3.org/Graphics/SVG/1.1/DTD/svg11.dtd"><svg t="1596603506116" class="icon" viewBox="0 0 1024 1024" version="1.1" xmlns="http://www.w3.org/2000/svg" p-id="1752" width="120" height="120" xmlns:xlink="http://www.w3.org/1999/xlink"><defs><style type="text/css"></style></defs><path d="M991.271385 443.195077L602.939077 39.345231C578.835692 14.336 546.540308 0.433231 512 0.433231s-66.835692 13.784615-90.939077 38.912L32.846769 443.195077c-40.093538 41.708308-34.934154 77.705846-28.317538 92.750769 4.765538 10.712615 20.637538 39.975385 66.56 39.975385H128v310.665846c0 70.537846 50.688 137.019077 122.683077 137.019077h165.297231v-328.822154c0-35.209846-5.316923-54.941538 30.680615-54.941538h130.638769c35.997538 0 30.680615 19.613538 30.680616 54.941538v328.822154h165.179077c71.995077 0 122.683077-66.481231 122.683077-137.019077v-310.665846h56.910769c45.922462 0 61.794462-29.380923 66.56-39.975385 6.774154-15.044923 11.933538-51.042462-28.041846-92.750769M952.871385 512H831.921231v374.587077c0 35.209846-22.764308 72.940308-58.761846 72.940308H671.901538v-264.743385c0-70.537846-22.606769-118.862769-94.64123-118.862769H446.621538c-71.995077 0-94.641231 48.324923-94.64123 118.862769v264.861538h-101.218462c-35.997538 0-58.761846-37.691077-58.761846-72.940307v-374.587077H70.971077c-1.142154 0-2.126769-4.332308-3.032615-4.489846 2.284308-3.820308 6.104615-13.627077 12.445538-20.243693l388.332308-403.574153a61.124923 61.124923 0 0 1 43.795692-19.298462c15.872-0.118154 31.232 7.286154 42.889846 19.298462l388.174769 403.416615c6.340923 6.656 10.200615 16.423385 12.327385 20.283077-0.787692 0.118154-1.811692 4.489846-3.032615 4.489846" fill="#333333" p-id="1753"></path></svg>